<svg width="24" height="24" viewBox="0 0 24 24" fill="none" xmlns="http://www.w3.org/2000/svg">
<path d="M5.59582 13.6233C5.24388 13.2714 5.24388 12.7012 5.59582 12.3493C5.94732 11.9973 6.51834 11.9973 6.86983 12.3493L11.1037 16.5831V1.07626C11.1037 0.578703 11.5071 0.175293 12.0046 0.175293C12.5022 0.175293 12.9056 0.578703 12.9056 1.07626V16.5831L17.1302 12.3585C17.4817 12.0066 18.0527 12.0066 18.4042 12.3585C18.7561 12.7105 18.7561 13.2806 18.4042 13.6325L12.6422 19.3945C12.6002 19.4365 12.5539 19.4742 12.5043 19.5073C12.482 19.5222 12.4578 19.5325 12.4346 19.5452C12.4063 19.5606 12.3791 19.5777 12.3492 19.5901C12.3195 19.6024 12.2885 19.6095 12.2579 19.6185C12.2322 19.626 12.2076 19.636 12.1811 19.6413C12.1228 19.6528 12.0638 19.659 12.0046 19.659C11.9455 19.659 11.8864 19.6528 11.8282 19.6413C11.8016 19.636 11.777 19.626 11.7513 19.6185C11.7207 19.6095 11.6897 19.6024 11.66 19.5901C11.6301 19.5777 11.6029 19.5606 11.5746 19.5452C11.5514 19.5325 11.5272 19.5222 11.5049 19.5073C11.4553 19.4742 11.409 19.4366 11.367 19.3945L5.59582 13.6233ZM23.099 22.0228H0.900962C0.40341 22.0228 0 22.4262 0 22.9237C0 23.4213 0.40341 23.8247 0.900962 23.8247H23.099C23.5966 23.8247 24 23.4213 24 22.9237C24 22.4262 23.5966 22.0228 23.099 22.0228Z" fill="white"/>
</svg>
