<svg width="96" height="97" viewBox="0 0 96 97" fill="none" xmlns="http://www.w3.org/2000/svg">
<rect y="0.842041" width="96" height="96" rx="15" fill="#1F99ED"/>
<path d="M59.938 48.907H33.412V55.6045H42.926V85.842H50.464V55.6045H59.938V48.907Z" fill="white"/>
<path d="M83.346 57.2872C83.346 57.2872 79.772 54.8412 75.732 54.8412C71.692 54.8412 70.238 56.8111 70.238 58.9164C70.238 64.35 85 63.8062 85 74.741C85 91.5855 62.492 84.1143 62.492 84.1143V76.0338C62.492 76.0338 66.796 79.362 71.958 79.362C77.12 79.362 76.924 75.8983 76.924 75.4223C76.924 70.3971 62.294 70.3971 62.294 59.257C62.294 44.1116 83.61 50.0869 83.61 50.0869L83.346 57.2872Z" fill="white"/>
</svg>
