<svg width="160" height="37" viewBox="0 0 160 37" fill="none" xmlns="http://www.w3.org/2000/svg">
<path d="M79.8189 9.62948C73.571 9.62948 69.0662 13.7042 69.0662 19.8162C69.0662 25.9283 74.137 30.003 80.3848 30.003C84.1596 30.003 87.4873 28.5089 89.5473 25.9905L85.2179 23.4891C84.0747 24.7398 82.3373 25.4699 80.3848 25.4699C77.674 25.4699 75.3707 24.0551 74.5161 21.7913H90.3735C90.498 21.1575 90.5716 20.501 90.5716 19.8106C90.5716 13.7042 86.0668 9.62948 79.8189 9.62948ZM74.4652 17.8355C75.1726 15.5774 77.1081 14.1569 79.8132 14.1569C82.524 14.1569 84.4595 15.5774 85.1613 17.8355H74.4652ZM140.758 9.62948C134.51 9.62948 130.006 13.7042 130.006 19.8162C130.006 25.9283 135.076 30.003 141.324 30.003C145.099 30.003 148.427 28.5089 150.487 25.9905L146.157 23.4891C145.014 24.7398 143.277 25.4699 141.324 25.4699C138.613 25.4699 136.31 24.0551 135.456 21.7913H151.313C151.437 21.1575 151.511 20.501 151.511 19.8106C151.511 13.7042 147.006 9.62948 140.758 9.62948ZM135.41 17.8355C136.118 15.5774 138.053 14.1569 140.758 14.1569C143.469 14.1569 145.405 15.5774 146.106 17.8355H135.41ZM113.322 19.8162C113.322 23.2118 115.54 25.4755 118.981 25.4755C121.313 25.4755 123.062 24.4173 123.962 22.6912L128.308 25.1982C126.508 28.1977 123.135 30.003 118.981 30.003C112.728 30.003 108.229 25.9283 108.229 19.8162C108.229 13.7042 112.733 9.62948 118.981 9.62948C123.135 9.62948 126.503 11.4348 128.308 14.4342L123.962 16.9413C123.062 15.2152 121.313 14.1569 118.981 14.1569C115.546 14.1569 113.322 16.4207 113.322 19.8162ZM160 3.40424V29.4371H154.907V3.40424H160ZM20.9111 0.574585L41.8223 36.7942H0L20.9111 0.574585ZM73.1918 3.40424L57.5099 30.5689L41.828 3.40424H47.708L57.5099 20.3822L67.3118 3.40424H73.1918ZM106.531 10.1954V15.6793C105.965 15.5152 105.365 15.402 104.72 15.402C101.432 15.402 99.0606 17.6657 99.0606 21.0613V29.4371H93.9672V10.1954H99.0606V15.402C99.0606 12.527 102.405 10.1954 106.531 10.1954Z" fill="black"/>
</svg>
