<svg width="160" height="61" viewBox="0 0 160 61" fill="none" xmlns="http://www.w3.org/2000/svg">
<path d="M57.3486 23.0527L40.992 31.6805C40.3786 32.0015 40.002 32.5989 40.002 33.244V50.5092C40.002 51.1543 40.3786 51.7486 40.992 52.0727L57.352 60.7069C57.962 61.0279 58.7186 61.0279 59.3286 60.7069L75.6853 52.0727C76.292 51.7486 76.6686 51.1543 76.6686 50.5092V33.244C76.6686 32.5989 76.292 32.0047 75.6786 31.6805L59.3253 23.0527C59.0186 22.8906 58.6753 22.8112 58.3353 22.8112C57.992 22.8112 57.6519 22.8906 57.3453 23.0527M141.505 38.5955L138.779 40.0319C138.675 40.0859 138.615 40.1844 138.615 40.2925V43.1716C138.615 43.2796 138.679 43.3782 138.779 43.4322L141.505 44.8717C141.609 44.9258 141.732 44.9258 141.835 44.8717L144.562 43.4322C144.662 43.3782 144.725 43.2796 144.725 43.1716V40.2925C144.725 40.1844 144.662 40.0859 144.559 40.0319L141.832 38.5955C141.782 38.5669 141.725 38.5542 141.669 38.5542C141.612 38.5542 141.555 38.5669 141.505 38.5955Z" fill="#388E3C"/>
<path d="M119.172 4.75474L111.209 0.518672C110.959 0.385203 110.652 0.388381 110.405 0.528206C110.159 0.668032 110.005 0.91908 110.005 1.19237L110.002 26.7804L102.659 22.9066C102.352 22.7445 102.009 22.6651 101.669 22.6651C101.329 22.6651 100.985 22.7445 100.679 22.9066H100.682L84.3253 31.5344C83.712 31.8554 83.3353 32.4528 83.3353 33.0947V50.36C83.3353 51.0051 83.712 51.5993 84.3253 51.9235L100.685 60.5577C101.295 60.8786 102.052 60.8786 102.662 60.5577L119.019 51.9235C119.625 51.6025 120.002 51.0051 120.002 50.36V6.10214C120.002 5.54284 119.682 5.02803 119.172 4.75474ZM109.555 46.3654L102.122 50.29C101.845 50.4362 101.502 50.4362 101.225 50.29L93.7887 46.3654C93.5053 46.2192 93.3353 45.9459 93.3353 45.6536V37.8043C93.3353 37.5119 93.5053 37.2418 93.7853 37.0925L101.222 33.171C101.362 33.0979 101.512 33.063 101.669 33.063C101.825 33.063 101.979 33.1011 102.119 33.171L109.552 37.0925C109.832 37.2418 110.002 37.5151 110.002 37.8075V45.6567C110.002 45.9459 109.832 46.2192 109.555 46.3654Z" fill="#37474F"/>
<path d="M57.3486 23.0527L40.002 50.5092C40.002 51.1543 40.3786 51.7486 40.992 52.0727L57.352 60.7069C57.962 61.0279 58.7186 61.0279 59.3286 60.7069L76.6686 33.244C76.6686 32.5989 76.292 32.0047 75.6786 31.6805L59.3253 23.0527C59.0186 22.8906 58.6753 22.8112 58.3353 22.8112C57.992 22.8112 57.652 22.8906 57.3453 23.0527" fill="#2E7D32"/>
<path d="M57.3486 23.0527L40.992 31.6805C40.3786 32.0015 40.002 32.5989 40.002 33.244L57.3486 60.7069C57.9586 61.0279 58.7153 61.0279 59.3253 60.7069L75.682 52.0727C76.292 51.7486 76.6686 51.1543 76.6686 50.5092L59.3253 23.0527C59.0186 22.8906 58.6753 22.8112 58.3353 22.8112C57.992 22.8112 57.652 22.8906 57.3453 23.0527" fill="#4CAF50"/>
<path d="M159.012 31.5344L142.659 22.9066C142.352 22.7445 142.009 22.665 141.669 22.665C141.329 22.665 140.985 22.7445 140.679 22.9066L124.325 31.5344C123.715 31.8554 123.335 32.4655 123.335 33.1329V50.3282C123.335 50.9923 123.715 51.6056 124.325 51.9266L140.685 60.5608C141.299 60.8849 142.049 60.8849 142.662 60.5608L150.205 56.579C150.895 56.2135 150.892 55.2697 150.199 54.9074L133.785 46.3686C133.509 46.2192 133.335 45.9427 133.335 45.644V37.8075C133.335 37.5151 133.502 37.245 133.769 37.1052L141.219 33.1773H141.215C141.355 33.1043 141.509 33.0693 141.665 33.0693C141.822 33.0693 141.975 33.1074 142.115 33.1773L149.565 37.1083C149.832 37.2482 149.999 37.5183 149.999 37.8106V44.2045C149.999 44.4777 150.152 44.732 150.402 44.8686C150.652 45.0021 150.959 45.0021 151.209 44.8654L159.202 40.4387C159.695 40.1654 160.002 39.6601 160.002 39.1136V33.1392C160.002 32.4687 159.622 31.8554 159.012 31.5344ZM35.6786 31.5344L19.3253 22.9066C19.0186 22.7445 18.6753 22.665 18.3353 22.665C17.9953 22.665 17.652 22.7445 17.3453 22.9066L0.991953 31.5344C0.381953 31.8554 0.00195312 32.4655 0.00195312 33.1329V56.8554C0.00195312 57.1287 0.155286 57.383 0.405286 57.5196C0.655286 57.6531 0.961953 57.6531 1.21195 57.5164L9.20529 53.0897C9.69862 52.8164 10.002 52.3111 10.002 51.7645V37.8043C10.002 37.5119 10.1686 37.2418 10.4353 37.102L17.8853 33.1742C18.0253 33.1011 18.1786 33.0661 18.3353 33.0661C18.492 33.0661 18.6453 33.1042 18.7853 33.1742L26.2353 37.1052C26.502 37.245 26.6686 37.5151 26.6686 37.8075V51.7677C26.6686 52.3143 26.972 52.8196 27.4686 53.0929L35.462 57.5196C35.712 57.6563 36.0186 57.6563 36.2686 57.5228C36.5153 57.383 36.6686 57.1287 36.6686 56.8554V33.136C36.6686 32.4687 36.2886 31.8554 35.6786 31.5344Z" fill="#37474F"/>
</svg>
