<svg width="76" height="85" viewBox="0 0 76 85" fill="none" xmlns="http://www.w3.org/2000/svg">
<path fill-rule="evenodd" clip-rule="evenodd" d="M35.806 1.2568C37.164 0.494803 38.836 0.494803 40.192 1.2568C46.902 5.0228 67.094 16.3588 73.806 20.1248C75.164 20.8848 76 22.2928 76 23.8168C76 31.3488 76 54.0188 76 61.5508C76 63.0748 75.164 64.4828 73.806 65.2448C67.096 69.0108 46.904 80.3468 40.192 84.1128C38.834 84.8748 37.162 84.8748 35.806 84.1128C29.096 80.3468 8.904 69.0108 2.192 65.2448C0.836 64.4828 0 63.0768 0 61.5528C0 54.0208 0 31.3508 0 23.8188C0 22.2948 0.836 20.8868 2.194 20.1248C8.902 16.3588 29.098 5.0228 35.806 1.2568Z" fill="#283593"/>
<path fill-rule="evenodd" clip-rule="evenodd" d="M0.608 63.4928C0.0759998 62.7808 0 62.1048 0 61.1948C0 53.7068 0 31.1668 0 23.6768C0 22.1608 0.834 20.7608 2.188 20.0048C8.874 16.2608 28.998 4.99077 35.684 1.24477C37.038 0.486767 38.872 0.502768 40.226 1.26077C46.912 5.00477 66.968 16.1788 73.654 19.9228C74.194 20.2268 74.606 20.5928 74.974 21.0748L0.608 63.4928Z" fill="#5C6BC0"/>
<path fill-rule="evenodd" clip-rule="evenodd" d="M38 14.6848C53.454 14.6848 66 27.2308 66 42.6848C66 58.1388 53.454 70.6848 38 70.6848C22.546 70.6848 10 58.1388 10 42.6848C10 27.2308 22.546 14.6848 38 14.6848ZM38 28.6848C45.726 28.6848 52 34.9568 52 42.6848C52 50.4108 45.726 56.6848 38 56.6848C30.274 56.6848 24 50.4108 24 42.6848C24 34.9568 30.272 28.6848 38 28.6848Z" fill="white"/>
<path fill-rule="evenodd" clip-rule="evenodd" d="M74.97 21.0948C76.002 22.0608 75.982 23.5168 75.982 24.6628C75.982 32.2528 75.918 53.8409 76 61.4309C76.008 62.2229 75.746 63.0569 75.354 63.6848L37.186 42.6848L74.97 21.0948Z" fill="#3949AB"/>
</svg>
