<svg width="36" height="24" viewBox="0 0 36 24" fill="none" xmlns="http://www.w3.org/2000/svg">
<path d="M2.7 0C2.16929 0 1.68216 0.159435 1.26562 0.421875L16.6781 13.8797C17.4926 14.5912 18.478 14.5911 19.2937 13.8797L34.7344 0.407813C34.3193 0.148027 33.8278 0 33.3 0H2.7ZM0.154687 1.82813C0.061155 2.10263 0 2.39306 0 2.7V20.7C0 22.1958 1.20423 23.4 2.7 23.4H33.3C34.7958 23.4 36 22.1958 36 20.7V2.7C36 2.39306 35.9388 2.10263 35.8453 1.82813L20.475 15.2438C19.043 16.4927 16.9285 16.4804 15.4969 15.2298L0.154687 1.82813Z" fill="white"/>
</svg>
