<svg width="78" height="68" viewBox="0 0 78 68" fill="none" xmlns="http://www.w3.org/2000/svg">
<path d="M65.1 37.6H12.1C10 37.6 8.30002 35.9 8.30002 33.8C8.30002 31.7 10 30 12.1 30H65.1C67.2 30 68.9 31.7 68.9 33.8C69 35.9 67.2 37.6 65.1 37.6Z" fill="white"/>
<path d="M73.4 7.6H3.8C1.7 7.6 0 5.9 0 3.8C0 1.7 1.7 0 3.8 0H73.5C75.6 0 77.3 1.7 77.3 3.8C77.3 5.9 75.6 7.6 73.4 7.6Z" fill="white"/>
<path d="M73.4 67.6H3.8C1.7 67.6 0 65.9 0 63.8C0 61.7 1.7 60 3.8 60H73.5C75.6 60 77.3 61.7 77.3 63.8C77.3 65.9 75.6 67.6 73.4 67.6Z" fill="white"/>
</svg>
