<svg width="76" height="77" viewBox="0 0 76 77" fill="none" xmlns="http://www.w3.org/2000/svg">
<path d="M38.969 0.684228C35.859 0.694228 33.703 0.968229 31.097 1.41823C23.401 2.75823 21.999 5.57223 21.999 10.7582V18.6842H39.999V22.6842H21.315H12.615C7.34302 22.6842 2.72902 25.1682 1.26702 31.1222C-0.384976 37.9562 -0.458976 42.2362 1.26702 49.3722C2.57702 54.6942 5.46302 58.6842 10.737 58.6842H18.001V48.4762C18.001 42.5442 23.373 36.6842 29.529 36.6842H44.001C49.047 36.6842 54.001 32.9602 54.001 27.9302V10.7582C54.001 5.88023 50.483 2.23223 45.565 1.41423C45.687 1.40223 42.053 0.672228 38.969 0.684228ZM29.001 8.68423C30.643 8.68423 32.001 10.0382 32.001 11.6882C32.001 13.3542 30.643 14.6842 29.001 14.6842C27.327 14.6842 26.001 13.3562 26.001 11.6882C26.001 10.0442 27.327 8.68423 29.001 8.68423Z" fill="#0277BD"/>
<path d="M37.031 76.6842C40.141 76.6742 42.297 76.4002 44.903 75.9502C52.599 74.6102 54.001 71.7962 54.001 66.6102V58.6842H36.001V54.6842H54.687H63.387C68.659 54.6842 73.273 52.2002 74.735 46.2462C76.387 39.4122 76.461 35.1322 74.735 27.9962C73.423 22.6742 70.537 18.6842 65.263 18.6842H57.999V28.8922C57.999 34.8242 52.627 40.6842 46.471 40.6842H31.999C26.953 40.6842 21.999 44.4082 21.999 49.4382V66.6102C21.999 71.4882 25.517 75.1362 30.435 75.9542C30.313 75.9662 33.947 76.6962 37.031 76.6842ZM47.001 68.6842C45.359 68.6842 44.001 67.3302 44.001 65.6802C44.001 64.0142 45.359 62.6842 47.001 62.6842C48.675 62.6842 50.001 64.0122 50.001 65.6802C50.001 67.3242 48.673 68.6842 47.001 68.6842Z" fill="#FFC107"/>
</svg>
