<svg width="59" height="59" viewBox="0 0 59 59" fill="none" xmlns="http://www.w3.org/2000/svg">
<path fill-rule="evenodd" clip-rule="evenodd" d="M41.3234 41.6646L47.0355 51.5583C48.1881 53.5565 47.4969 56.1359 45.5001 57.2888C43.5015 58.4427 40.9221 57.7515 39.7682 55.7529L34.0561 45.8592L27.9721 50.6051C26.9595 51.396 25.4804 50.7785 25.3264 49.5031L21.6887 19.0746C21.517 17.6441 23.1549 16.6985 24.3082 17.561L48.8408 35.927C49.8701 36.6971 49.6639 38.2864 48.4724 38.7692L41.3217 41.6656L41.3234 41.6646ZM47.3594 37.179L23.6366 19.4202L27.1552 48.8428L33.4049 43.9693C34.0445 43.4702 34.9675 43.6496 35.3729 44.3536L41.4091 54.8067C42.0408 55.9009 43.4606 56.2813 44.5548 55.6496C45.649 55.0179 46.0298 53.5967 45.3977 52.5039L39.3632 42.0498C38.9561 41.3468 39.2623 40.4576 40.0161 40.1524L47.3611 37.178L47.3594 37.179Z" fill="black"/>
<path d="M15.4687 7.16606C15.2067 6.71435 15.3621 6.13456 15.8148 5.87434C16.2678 5.61277 16.8463 5.76776 17.1065 6.22045L20.2951 11.7412C20.5553 12.1939 20.4003 12.7724 19.9486 13.0343C19.4959 13.2945 18.9174 13.1395 18.6555 12.6878L15.4687 7.16606Z" fill="black"/>
<path d="M27.0833 4.90655C27.2184 4.40226 27.7378 4.10355 28.2421 4.23867C28.7463 4.37379 29.0468 4.89217 28.9117 5.39646L27.2616 11.5544C27.1265 12.0587 26.6068 12.3587 26.1025 12.2236C25.5982 12.0885 25.2982 11.5688 25.4333 11.0645L27.0833 4.90655Z" fill="black"/>
<path d="M36.8922 11.522C37.3452 11.2604 37.9237 11.4154 38.1852 11.8685C38.4458 12.3198 38.2905 12.8996 37.8391 13.1602L32.317 16.3484C31.8656 16.609 31.2872 16.454 31.0253 16.0023C30.7637 15.5493 30.9187 14.9708 31.3717 14.7092L36.8922 11.522Z" fill="black"/>
<path d="M11.1123 28.5909C10.661 28.8515 10.0825 28.6965 9.82061 28.2448C9.55904 27.7918 9.71403 27.2133 10.1671 26.9517L15.6875 23.7645C16.1406 23.5029 16.719 23.6579 16.9806 24.111C17.2412 24.5623 17.0858 25.1421 16.6345 25.4027L11.1123 28.5909Z" fill="black"/>
<path d="M8.85279 16.9763C8.34851 16.8412 8.04943 16.3231 8.18455 15.8188C8.32003 15.3132 8.83806 15.0141 9.34234 15.1493L15.5003 16.7993C16.0059 16.9348 16.305 17.4528 16.1695 17.9584C16.0344 18.4627 15.5163 18.7618 15.0107 18.6263L8.85279 16.9763Z" fill="black"/>
</svg>
