<svg width="36" height="37" viewBox="0 0 36 37" fill="none" xmlns="http://www.w3.org/2000/svg">
<path d="M35.5988 26.5569H35.596L23.6825 23.8325C22.6522 24.8658 21.9307 26.2078 21.6768 27.7113C15.4546 25.5266 10.5339 20.5772 8.38963 14.3347L8.3925 14.3318C9.91054 14.0866 11.2698 13.3622 12.3146 12.3203V12.3174L9.63921 0.418459C9.2525 0.279897 8.85137 0.173128 8.43866 0.106769C8.0404 0.0346157 7.63061 0 7.21503 0C3.25541 0 0.0404101 3.19188 0.00287179 7.13995C-1.49632e-09 7.1659 0 7.18903 0 7.21497V7.29C0 23.1803 12.8398 36.0692 28.7099 36.1471C28.7359 36.15 28.759 36.15 28.785 36.15H28.8109C32.7849 36.1356 36 32.9119 36 28.935C36 28.5367 35.9683 28.1443 35.9018 27.7633C35.8384 27.3477 35.7345 26.9437 35.5988 26.5569Z" fill="white"/>
</svg>
