<svg width="24" height="24" viewBox="0 0 24 24" fill="none" xmlns="http://www.w3.org/2000/svg">
<path d="M23.1821 18.6381L12.3725 0.193029C12.2009 -0.0643429 11.7719 -0.0643429 11.6433 0.193029L0.833654 18.6381C0.576282 19.0242 0.576282 19.5389 0.833654 19.925C1.00523 20.311 1.43419 20.5684 1.90602 20.5684H8.38328L11.6861 23.8713C11.7719 23.9571 11.9006 24 11.9864 24C12.0722 24 12.2009 23.9571 12.2867 23.8713L15.5896 20.5684H22.0668C22.5387 20.5684 22.9676 20.3111 23.1821 19.925C23.4395 19.496 23.3966 19.0242 23.1821 18.6381ZM8.55486 19.7105H1.90602C1.69155 19.7105 1.56286 19.5389 1.51998 19.496C1.47708 19.4102 1.39129 19.2387 1.51998 19.0671L11.5573 1.99462V22.5415L8.85492 19.8391C8.76913 19.7533 8.68356 19.7105 8.55486 19.7105ZM22.4529 19.496C22.41 19.5389 22.2814 19.7105 22.0669 19.7105H15.4181C15.2894 19.7105 15.2036 19.7534 15.1178 19.8392L12.4154 22.5416V1.9947L22.4527 19.0672C22.5385 19.2387 22.4958 19.4102 22.4529 19.496Z" fill="white"/>
</svg>
