<svg width="12" height="13" viewBox="0 0 12 13" fill="none" xmlns="http://www.w3.org/2000/svg">
<path d="M2.40841 2.04457C3.36096 1.09202 4.65289 0.556885 6 0.556885C7.3471 0.556885 8.63903 1.09202 9.59158 2.04457C10.5441 2.99711 11.0793 4.28905 11.0793 5.63615C11.0793 6.98326 10.5441 8.27519 9.59158 9.22773L8.89916 9.91257C8.23934 10.5591 7.57706 11.2031 6.91233 11.8446C6.66758 12.0812 6.34045 12.2135 6 12.2135C5.65954 12.2135 5.33241 12.0812 5.08766 11.8446L3.05125 9.86357C2.79516 9.61273 2.58108 9.4004 2.40841 9.22773C1.93674 8.75609 1.56258 8.19616 1.30731 7.57992C1.05204 6.96367 0.920654 6.30318 0.920654 5.63615C0.920654 4.96913 1.05204 4.30863 1.30731 3.69239C1.56258 3.07614 1.93674 2.51621 2.40841 2.04457ZM8.97266 2.66407C8.58326 2.26931 8.1196 1.95549 7.6084 1.74067C7.0972 1.52585 6.54855 1.41429 5.99406 1.4124C5.43956 1.41051 4.89016 1.51833 4.37751 1.72965C3.86486 1.94098 3.39907 2.25163 3.00698 2.64372C2.61489 3.03581 2.30424 3.5016 2.09291 4.01425C1.88159 4.5269 1.77377 5.0763 1.77566 5.63079C1.77755 6.18529 1.88912 6.73394 2.10393 7.24514C2.31875 7.75634 2.63257 8.21999 3.02733 8.6094L3.89475 9.46515C4.3725 9.9324 4.97275 10.5163 5.69608 11.2151C5.7776 11.2942 5.88664 11.3384 6.00017 11.3385C6.1137 11.3386 6.22283 11.2946 6.3045 11.2157L8.28433 9.28957C8.5585 9.02123 8.78775 8.79432 8.97266 8.6094C9.36312 8.21901 9.67284 7.75552 9.88416 7.24542C10.0955 6.73532 10.2042 6.18858 10.2042 5.63644C10.2042 5.0843 10.0955 4.53757 9.88416 4.02746C9.67284 3.51736 9.36312 3.05446 8.97266 2.66407ZM6 4.04598C6.23261 4.04174 6.46375 4.08389 6.67989 4.16997C6.89603 4.25605 7.09286 4.38434 7.25887 4.54735C7.42487 4.71035 7.55673 4.9048 7.64675 5.11934C7.73676 5.33388 7.78312 5.5642 7.78312 5.79686C7.78312 6.02951 7.73676 6.25984 7.64675 6.47438C7.55673 6.68891 7.42487 6.88336 7.25887 7.04637C7.09286 7.20937 6.89603 7.33766 6.67989 7.42375C6.46375 7.50983 6.23261 7.55198 6 7.54773C5.54354 7.53595 5.10973 7.34634 4.79105 7.01933C4.47237 6.69232 4.29402 6.25376 4.29402 5.79715C4.29402 5.34054 4.47237 4.90199 4.79105 4.57497C5.10973 4.24796 5.54354 4.05835 6 4.04657V4.04598ZM6 4.92098C5.7677 4.92098 5.54492 5.01326 5.38066 5.17752C5.2164 5.34178 5.12412 5.56456 5.12412 5.79686C5.12412 6.02916 5.2164 6.25194 5.38066 6.4162C5.54492 6.58045 5.7677 6.67273 6 6.67273C6.23229 6.67273 6.45507 6.58045 6.61933 6.4162C6.78359 6.25194 6.87587 6.02916 6.87587 5.79686C6.87587 5.56456 6.78359 5.34178 6.61933 5.17752C6.45507 5.01326 6.23229 4.92098 6 4.92098Z" fill="white"/>
</svg>
