<svg width="9" height="9" viewBox="0 0 9 9" fill="none" xmlns="http://www.w3.org/2000/svg">
<path d="M7.375 0C7.80598 0 8.2193 0.171205 8.52405 0.475951C8.8288 0.780698 9 1.19402 9 1.625V7.375C9 7.80598 8.8288 8.2193 8.52405 8.52405C8.2193 8.8288 7.80598 9 7.375 9H1.625C1.19402 9 0.780698 8.8288 0.475951 8.52405C0.171205 8.2193 0 7.80598 0 7.375V1.625C0 1.19402 0.171205 0.780698 0.475951 0.475951C0.780698 0.171205 1.19402 0 1.625 0H7.375ZM8.25 2.75H0.75V7.375C0.75 7.858 1.142 8.25 1.625 8.25H7.375C7.60706 8.25 7.82962 8.15781 7.99372 7.99372C8.15781 7.82962 8.25 7.60706 8.25 7.375V2.75ZM2.375 5.75C2.54076 5.75 2.69973 5.81585 2.81694 5.93306C2.93415 6.05027 3 6.20924 3 6.375C3 6.54076 2.93415 6.69973 2.81694 6.81694C2.69973 6.93415 2.54076 7 2.375 7C2.20924 7 2.05027 6.93415 1.93306 6.81694C1.81585 6.69973 1.75 6.54076 1.75 6.375C1.75 6.20924 1.81585 6.05027 1.93306 5.93306C2.05027 5.81585 2.20924 5.75 2.375 5.75ZM4.5 5.75C4.66576 5.75 4.82473 5.81585 4.94194 5.93306C5.05915 6.05027 5.125 6.20924 5.125 6.375C5.125 6.54076 5.05915 6.69973 4.94194 6.81694C4.82473 6.93415 4.66576 7 4.5 7C4.33424 7 4.17527 6.93415 4.05806 6.81694C3.94085 6.69973 3.875 6.54076 3.875 6.375C3.875 6.20924 3.94085 6.05027 4.05806 5.93306C4.17527 5.81585 4.33424 5.75 4.5 5.75ZM2.375 3.75C2.54076 3.75 2.69973 3.81585 2.81694 3.93306C2.93415 4.05027 3 4.20924 3 4.375C3 4.54076 2.93415 4.69973 2.81694 4.81694C2.69973 4.93415 2.54076 5 2.375 5C2.20924 5 2.05027 4.93415 1.93306 4.81694C1.81585 4.69973 1.75 4.54076 1.75 4.375C1.75 4.20924 1.81585 4.05027 1.93306 3.93306C2.05027 3.81585 2.20924 3.75 2.375 3.75ZM4.5 3.75C4.66576 3.75 4.82473 3.81585 4.94194 3.93306C5.05915 4.05027 5.125 4.20924 5.125 4.375C5.125 4.54076 5.05915 4.69973 4.94194 4.81694C4.82473 4.93415 4.66576 5 4.5 5C4.33424 5 4.17527 4.93415 4.05806 4.81694C3.94085 4.69973 3.875 4.54076 3.875 4.375C3.875 4.20924 3.94085 4.05027 4.05806 3.93306C4.17527 3.81585 4.33424 3.75 4.5 3.75ZM6.625 3.75C6.79076 3.75 6.94973 3.81585 7.06694 3.93306C7.18415 4.05027 7.25 4.20924 7.25 4.375C7.25 4.54076 7.18415 4.69973 7.06694 4.81694C6.94973 4.93415 6.79076 5 6.625 5C6.45924 5 6.30027 4.93415 6.18306 4.81694C6.06585 4.69973 6 4.54076 6 4.375C6 4.20924 6.06585 4.05027 6.18306 3.93306C6.30027 3.81585 6.45924 3.75 6.625 3.75ZM7.375 0.75H1.625C1.39294 0.75 1.17038 0.842187 1.00628 1.00628C0.842187 1.17038 0.75 1.39294 0.75 1.625V2H8.25V1.625C8.25 1.39294 8.15781 1.17038 7.99372 1.00628C7.82962 0.842187 7.60706 0.75 7.375 0.75Z" fill="#33333B"/>
</svg>
