<svg width="88" height="79" viewBox="0 0 88 79" fill="none" xmlns="http://www.w3.org/2000/svg">
<path d="M87.8348 45.3893L76.5773 3.17319C76.3974 2.49837 76.0076 1.89818 75.4644 1.45924C74.9212 1.02029 74.2525 0.765291 73.555 0.731029C72.8574 0.696767 72.167 0.885017 71.5833 1.26861C70.9997 1.65221 70.553 2.21132 70.3078 2.86525L61.3947 26.6331H26.6053L17.6924 2.86545C17.4472 2.21148 17.0005 1.65233 16.4169 1.26869C15.8333 0.885058 15.1428 0.696775 14.4452 0.731015C13.7476 0.765254 13.0789 1.02025 12.5357 1.4592C11.9924 1.89814 11.6027 2.49834 11.4227 3.17319L0.165176 45.3893C-0.0953495 46.3728 -0.0467564 47.4128 0.304351 48.3677C0.655459 49.3227 1.29206 50.1464 2.12764 50.727L41.1863 77.7677C41.8545 78.228 42.6261 78.5159 43.4324 78.6058C43.5301 78.6248 43.6292 78.6348 43.7287 78.6358C43.7399 78.6358 43.7514 78.633 43.7627 78.6328C43.8418 78.6364 43.9209 78.6416 44 78.6416C44.0792 78.6416 44.1582 78.6364 44.2374 78.6328C44.2486 78.633 44.2601 78.6358 44.2713 78.6358C44.3707 78.6348 44.4697 78.6248 44.5672 78.6058C45.3737 78.5159 46.1454 78.228 46.8137 77.7677L85.8724 50.727C86.708 50.1464 87.3446 49.3227 87.6957 48.3677C88.0468 47.4128 88.0954 46.3728 87.8348 45.3893ZM73.3934 4.02238L79.4229 26.6331H64.9142L73.3934 4.02238ZM44 73.0193L27.841 29.9285H60.159L44 73.0193ZM14.6068 4.02238L23.0858 26.6331H8.57721L14.6068 4.02238ZM3.34912 46.2383L7.69845 29.9285H24.3216L40.6082 73.3594L4.00341 48.0177C3.72491 47.8241 3.51273 47.5495 3.39568 47.2312C3.27863 46.9128 3.26237 46.5662 3.34912 46.2383ZM83.9966 48.0177L47.3918 73.3595L63.6784 29.9285H80.3017L84.6509 46.2383C84.7376 46.5662 84.7214 46.9128 84.6043 47.2312C84.4873 47.5495 84.2751 47.8241 83.9966 48.0177Z" fill="black"/>
</svg>
