<svg width="88" height="89" viewBox="0 0 88 89" fill="none" xmlns="http://www.w3.org/2000/svg">
<path d="M44 4.51041C45.0836 4.51041 46.0999 4.92889 46.8621 5.69859L82.9857 41.8222C84.57 43.399 84.57 45.9697 82.9857 47.5464L46.8621 83.6701C46.0999 84.4398 45.0836 84.8582 44 84.8582C42.9164 84.8582 41.9001 84.4398 41.1379 83.6701L5.01427 47.5464C3.43003 45.9697 3.43003 43.399 5.01427 41.8222L28.5836 18.2529L32.9327 22.6021C31.8865 26.488 32.9402 30.7251 35.8845 33.6694C36.587 34.3718 37.3866 34.9771 38.2609 35.4778V53.8983C34.7785 55.9085 32.5217 59.6524 32.5217 63.8148C32.5217 70.1442 37.6705 75.293 44 75.293C50.3295 75.293 55.4783 70.1442 55.4783 63.8148C55.4783 59.6524 53.2215 55.9085 49.7391 53.8983V39.4085L52.0632 41.7326C51.017 45.6184 52.0707 49.8555 55.0149 52.7998C57.1821 54.9669 60.0666 56.1626 63.1304 56.1626C66.1943 56.1626 69.0788 54.9669 71.2459 52.7998C75.7221 48.3236 75.7221 41.0451 71.2459 36.5688C69.0863 34.4092 66.2242 33.221 63.1678 33.221C62.159 33.221 61.1501 33.3555 60.1787 33.6171L55.0673 28.5057C56.1135 24.6198 55.0598 20.3827 52.1155 17.4384C49.9558 15.2788 47.0938 14.0906 44.0374 14.0906C43.0285 14.0906 42.0197 14.2251 41.0482 14.4866L36.6991 10.1375L41.1379 5.69859C41.9001 4.92889 42.9164 4.51041 44 4.51041ZM44 0.684326C41.9823 0.684326 39.9647 1.45403 38.4327 2.99343L31.2887 10.1375L40.1291 18.9778C41.3322 18.2754 42.6848 17.9167 44.0374 17.9167C45.9803 17.9167 47.9232 18.6565 49.4103 20.1436C51.9287 22.6619 52.2948 26.488 50.5686 29.4173L59.2595 38.1082C60.4626 37.4058 61.8152 37.0471 63.1678 37.0471C65.1107 37.0471 67.0537 37.7869 68.5408 39.274C71.5299 42.2631 71.5299 47.1055 68.5408 50.0947C67.0462 51.5892 65.0883 52.3365 63.1304 52.3365C61.1726 52.3365 59.2147 51.5892 57.7201 50.0947C55.2018 47.5763 54.8356 43.7502 56.5618 40.8134L47.8709 32.1225C47.2507 32.4887 46.5931 32.7577 45.913 32.9296V56.4316C49.2086 57.2835 51.6522 60.2502 51.6522 63.8148C51.6522 68.0444 48.2296 71.4669 44 71.4669C39.7779 71.4669 36.3478 68.0444 36.3478 63.8148C36.3478 60.2502 38.7914 57.2835 42.087 56.4316V32.9296C40.8091 32.6008 39.591 31.9656 38.5897 30.9642C36.0713 28.4459 35.7052 24.6198 37.4314 21.6904L28.5836 12.8426L2.3091 39.1171C-0.769701 42.1884 -0.769701 47.1803 2.3091 50.2516L38.4327 86.3752C39.9647 87.9146 41.9823 88.6843 44 88.6843C46.0177 88.6843 48.0353 87.9146 49.5673 86.3752L85.6909 50.2516C88.7697 47.1803 88.7697 42.1884 85.6909 39.1171L49.5673 2.99343C48.0353 1.45403 46.0177 0.684326 44 0.684326Z" fill="black"/>
</svg>
