<svg width="120" height="56" viewBox="0 0 120 56" fill="none" xmlns="http://www.w3.org/2000/svg">
<path d="M60.0001 0.0429688C44.0001 0.0429688 34.0001 6.18505 30.0001 18.4692C36.0001 12.3271 43.0001 10.025 51.0001 11.5591C55.5651 12.4346 58.8276 14.9787 62.4401 17.7934C68.3201 22.3764 75.1276 27.6833 90.0001 27.6833C106 27.6833 116 21.5412 120 9.25513C114 15.3972 107 17.7012 99.0001 16.1671C94.4376 15.2916 91.1751 12.7476 87.5626 9.93289C81.6801 5.34793 74.8701 0.0429688 60.0001 0.0429688ZM30.0001 27.6833C14.0001 27.6833 4.00012 33.8254 0.00012207 46.1114C6.00012 39.9694 13.0001 37.6654 21.0001 39.2014C25.5626 40.0788 28.8251 42.6209 32.4376 45.4337C38.3201 50.0186 45.1301 55.3255 60.0001 55.3255C76.0001 55.3255 86.0001 49.1834 90.0001 36.8974C84.0001 43.0394 77.0001 45.3434 69.0001 43.8074C64.4351 42.9319 61.1726 40.3879 57.5601 37.5751C51.6801 32.9902 44.8726 27.6833 30.0001 27.6833Z" fill="#00ACC1"/>
</svg>
