<svg width="36" height="36" viewBox="0 0 36 36" fill="none" xmlns="http://www.w3.org/2000/svg">
<path d="M36 18C36 26.064 30.708 32.886 23.4 35.172V30.6C23.4 29.061 22.752 27.684 21.726 26.694C26.442 25.839 28.8 23.094 28.8 18C28.8 15.795 28.35 14.049 27.468 12.69C27.864 11.151 28.098 8.964 27 7.2C24.876 7.2 23.391 8.451 22.518 9.477C21.213 9.162 19.71 9 18 9C16.38 9 14.886 9.18 13.554 9.549C12.69 8.514 11.178 7.2 9 7.2C7.722 9.252 8.244 11.466 8.73 12.708C7.758 14.067 7.2 15.813 7.2 18C7.2 23.094 9.558 25.839 14.274 26.694C13.671 27.279 13.203 27.99 12.915 28.8H10.8C9.504 28.8 9 28.224 8.307 27.288C7.614 26.352 6.867 25.722 5.976 25.461C5.499 25.407 5.175 25.794 5.598 26.136C7.011 27.153 7.11 28.818 7.677 29.907C8.19 30.888 9.252 31.5 10.449 31.5H12.6V35.172C5.292 32.886 0 26.064 0 18C0 8.055 8.055 0 18 0C27.945 0 36 8.055 36 18Z" fill="white"/>
</svg>
